Coordinates
version=1
nRows=9
nColumns=42
inDegrees=yes

Units are S.I. units (second, meters, Newtons, ...)
If the header above contains a line with 'inDegrees', this indicates whether rotational values are in degrees (yes) or radians (no).

endheader
time	pelvis_tilt	pelvis_list	pelvis_rotation	pelvis_tx	pelvis_ty	pelvis_tz	hip_flexion_r	hip_adduction_r	hip_rotation_r	knee_angle_r	knee_adduction_r	knee_angle_r_beta	ankle_angle_r	subtalar_angle_r	mtp_angle_r	hip_flexion_l	hip_adduction_l	hip_rotation_l	knee_angle_l	knee_adduction_l	knee_angle_l_beta	ankle_angle_l	subtalar_angle_l	mtp_angle_l	lumbar_extension	lumbar_bending	lumbar_rotation	arm_flex_r	arm_add_r	arm_rot_r	elbow_flex_r	pro_sup_r	wrist_flex_r	wrist_dev_r	arm_flex_l	arm_add_l	arm_rot_l	elbow_flex_l	pro_sup_l	wrist_flex_l	wrist_dev_l
      0.73000000	      1.87593133	     -1.05655674	     -3.38460711	     -1.40325855	      0.95736707	      0.34253976	    -15.54608582	      0.67847346	     -2.92792238	      2.56228728	      4.77221375	      0.04472035	     16.87239884	     14.39180702	     -7.81490795	     19.51406585	     -3.86709361	    -16.25612105	      6.58797799	      0.61796417	      0.11498191	      3.25573642	     15.66527616	     -7.81490795	     -9.40798571	      2.37241960	      4.48200322	      6.54837495	    -18.02815763	      9.41389875	     38.09957840	     90.00000001	      0.00000000	      0.00000000	    -13.43782981	    -12.19050868	      9.79848843	     29.18430715	     90.00000001	      0.00000000	      0.00000000
      0.74000000	      1.85750922	     -1.18729749	     -3.51016189	     -1.39350325	      0.95581953	      0.34254236	    -16.13985141	      0.77306937	     -2.60233271	      2.62098194	      4.74094868	      0.04574476	     17.01076135	     13.94741398	     -7.79814274	     19.63779952	     -3.94063891	    -17.19892091	      5.69113371	      0.60457949	      0.09932902	      3.34924958	     17.97341287	     -7.79814274	     -9.43668219	      2.34035717	      4.58801804	      6.80997208	    -18.22260178	     10.41370796	     38.08519220	     90.00000001	      0.00000000	      0.00000000	    -13.55575083	    -12.04335958	      9.20700838	     29.07027869	     90.00000001	      0.00000000	      0.00000000
      0.75000000	      1.65869111	     -1.39228967	     -3.59081028	     -1.38376820	      0.95415983	      0.34275480	    -16.47028869	      1.02162213	     -2.43690344	      2.82674442	      4.61051790	      0.04933600	     17.20961126	     13.88157662	     -7.79471324	     19.85536218	     -4.08179361	    -17.23511967	      4.96894156	      0.67152808	      0.08672439	      3.24813644	     18.69419616	     -7.79471324	     -9.27818784	      2.36991819	      4.71068781	      6.97542185	    -18.17196298	     10.60831865	     37.93692386	     90.00000001	      0.00000000	      0.00000000	    -13.63163344	    -12.05321563	      9.14097791	     28.98730397	     90.00000001	      0.00000000	      0.00000000
      0.76000000	      1.67795069	     -1.46106669	     -3.77195081	     -1.37373984	      0.95282251	      0.34271696	    -17.08300177	      0.99017970	     -2.12885677	      2.95542840	      4.61069546	      0.05158196	     17.27428996	     13.62942136	     -7.77781512	     19.93589620	     -4.09401290	    -17.91894526	      4.84569552	      0.59097957	      0.08457334	      3.32367140	     19.95031966	     -7.77781512	     -9.33962225	      2.25092155	      4.85684643	      7.14394383	    -18.29178853	     11.40687076	     37.86896725	     90.00000001	      0.00000000	      0.00000000	    -13.68048475	    -11.94031355	      8.63703496	     28.85141011	     90.00000001	      0.00000000	      0.00000000
      0.77000000	      1.52638829	     -1.55739286	     -3.86389725	     -1.36363178	      0.95138924	      0.34267492	    -17.44227600	      1.01415180	     -2.10092950	      3.23786074	      4.60382789	      0.05651133	     17.26144038	     13.61997480	     -7.77691582	     20.14321966	     -4.10804174	    -17.83336086	      4.96687137	      0.55403026	      0.08668826	      3.28819725	     19.92649160	     -7.77691582	     -9.20206323	      2.16303571	      4.95295650	      7.14658045	    -18.21731362	     11.43810096	     37.88794333	     90.00000001	      0.00000000	      0.00000000	    -13.74119453	    -11.97047509	      8.62490971	     28.84279040	     90.00000001	      0.00000000	      0.00000000
      0.78000000	      1.38880343	     -1.63871080	     -4.02324942	     -1.35315254	      0.95011144	      0.34268530	    -17.82350542	      0.99791489	     -2.01633437	      3.54095598	      4.56615931	      0.06180134	     17.25314403	     13.62716877	     -7.77596809	     20.22318788	     -4.10460509	    -17.65164106	      5.21313305	      0.44759746	      0.09098634	      3.18970824	     19.90681021	     -7.77596809	     -9.04833830	      2.04622454	      5.08945560	      7.06061214	    -18.11706729	     11.50664463	     37.83958794	     90.00000001	      0.00000000	      0.00000000	    -13.83321017	    -11.99344205	      8.61113129	     28.79291014	     90.00000001	      0.00000000	      0.00000000
      0.79000000	      1.77015206	     -1.35361668	     -4.50976002	     -1.34264417	      0.94967544	      0.34271215	    -18.74706536	      0.38373609	     -1.53329476	      3.76071455	      4.60817606	      0.06563685	     17.35977572	     13.84946430	     -7.76827772	     19.65589682	     -3.69888842	    -17.94082550	      5.58933457	      0.15763465	      0.09755229	      2.56783836	     19.43400085	     -7.76827772	     -9.47576700	      1.44726984	      5.49226073	      7.21134378	    -18.12909581	     12.32340261	     37.43946551	     90.00000001	      0.00000000	      0.00000000	    -13.59829074	    -11.95088242	      8.35045207	     28.32605743	     90.00000001	      0.00000000	      0.00000000
      0.80000000	      1.65109636	     -1.37684814	     -4.71718259	     -1.33172959	      0.94875243	      0.34256345	    -19.10572628	      0.24984834	     -1.35620214	      4.16011894	      4.56837445	      0.07260777	     17.26480587	     13.88081928	     -7.76705655	     19.59178321	     -3.63436628	    -17.57606802	      6.09476619	      0.02785075	      0.10637374	      2.31299893	     19.37305616	     -7.76705655	     -9.29632209	      1.27257631	      5.63875774	      7.00550955	    -18.03260281	     12.38954037	     37.37424047	     90.00000001	      0.00000000	      0.00000000	    -13.67676781	    -11.95465719	      8.33281195	     28.27792441	     90.00000001	      0.00000000	      0.00000000
      0.81000000	      1.84716866	     -1.13171853	     -4.99227985	     -1.32125269	      0.94853027	      0.34215726	    -19.68541490	     -0.29959154	     -1.12101957	      4.65014287	      4.63850775	      0.08116030	     17.01408939	     13.97141057	     -7.76399912	     19.35243702	     -3.25442055	    -17.71289307	      6.95216299	     -0.26589883	      0.12133813	      1.17634396	     18.58551661	     -7.76399912	     -9.54693094	      0.77085384	      5.84640863	      6.94823006	    -17.93192320	     12.60093538	     37.15816153	     90.00000001	      0.00000000	      0.00000000	    -13.36760733	    -11.92974978	      8.33446785	     27.87278821	     90.00000001	      0.00000000	      0.00000000
